<svg xmlns="http://www.w3.org/2000/svg" xmlns:xlink="http://www.w3.org/1999/xlink" width="2000" zoomAndPan="magnify" viewBox="0 0 1500 1499.999933" height="2000" preserveAspectRatio="xMidYMid meet" version="1.0"><defs><clipPath id="a6bd8e01f7"><path d="M 45 237.269531 L 1404.746094 237.269531 L 1404.746094 1209 L 45 1209 Z M 45 237.269531 " clip-rule="nonzero"/></clipPath><clipPath id="9e7c4f54aa"><path d="M 101.847656 306.167969 L 485.097656 306.167969 L 485.097656 1132.667969 L 101.847656 1132.667969 Z M 101.847656 306.167969 " clip-rule="nonzero"/></clipPath><clipPath id="25d44f3e99"><path d="M 867.125 267.589844 L 1328.375 267.589844 L 1328.375 1133.089844 L 867.125 1133.089844 Z M 867.125 267.589844 " clip-rule="nonzero"/></clipPath><clipPath id="5d3eccc471"><path d="M 651.714844 624.871094 L 848.214844 624.871094 L 848.214844 875.371094 L 651.714844 875.371094 Z M 651.714844 624.871094 " clip-rule="nonzero"/></clipPath></defs><g clip-path="url(#a6bd8e01f7)"><path fill="#5e17eb" d="M 142.25 237.269531 L 1307.492188 237.269531 C 1309.082031 237.269531 1310.671875 237.308594 1312.257812 237.386719 C 1313.84375 237.464844 1315.429688 237.582031 1317.011719 237.738281 C 1318.59375 237.894531 1320.167969 238.089844 1321.742188 238.320312 C 1323.3125 238.554688 1324.878906 238.828125 1326.4375 239.136719 C 1327.996094 239.445312 1329.546875 239.796875 1331.085938 240.179688 C 1332.628906 240.566406 1334.160156 240.992188 1335.679688 241.453125 C 1337.199219 241.914062 1338.710938 242.410156 1340.207031 242.949219 C 1341.703125 243.484375 1343.183594 244.054688 1344.652344 244.664062 C 1346.121094 245.269531 1347.574219 245.914062 1349.007812 246.59375 C 1350.445312 247.273438 1351.867188 247.988281 1353.265625 248.738281 C 1354.667969 249.484375 1356.050781 250.269531 1357.414062 251.085938 C 1358.777344 251.902344 1360.117188 252.753906 1361.441406 253.636719 C 1362.761719 254.519531 1364.0625 255.433594 1365.335938 256.378906 C 1366.613281 257.328125 1367.867188 258.304688 1369.09375 259.3125 C 1370.324219 260.320312 1371.527344 261.359375 1372.703125 262.425781 C 1373.878906 263.492188 1375.03125 264.589844 1376.15625 265.710938 C 1377.277344 266.835938 1378.375 267.984375 1379.441406 269.164062 C 1380.507812 270.339844 1381.546875 271.542969 1382.554688 272.773438 C 1383.5625 274 1384.539062 275.253906 1385.488281 276.53125 C 1386.433594 277.804688 1387.347656 279.105469 1388.230469 280.425781 C 1389.113281 281.746094 1389.964844 283.089844 1390.78125 284.453125 C 1391.597656 285.816406 1392.382812 287.199219 1393.128906 288.601562 C 1393.878906 290 1394.59375 291.421875 1395.273438 292.859375 C 1395.953125 294.292969 1396.597656 295.746094 1397.203125 297.214844 C 1397.8125 298.683594 1398.382812 300.164062 1398.917969 301.660156 C 1399.457031 303.15625 1399.953125 304.667969 1400.414062 306.1875 C 1400.875 307.707031 1401.300781 309.238281 1401.6875 310.78125 C 1402.070312 312.320312 1402.421875 313.871094 1402.730469 315.429688 C 1403.039062 316.988281 1403.3125 318.554688 1403.546875 320.125 C 1403.777344 321.699219 1403.972656 323.273438 1404.128906 324.855469 C 1404.285156 326.4375 1404.402344 328.023438 1404.480469 329.609375 C 1404.558594 331.195312 1404.597656 332.785156 1404.597656 334.375 L 1404.597656 1111.203125 C 1404.597656 1112.792969 1404.558594 1114.378906 1404.480469 1115.96875 C 1404.402344 1117.554688 1404.285156 1119.140625 1404.128906 1120.722656 C 1403.972656 1122.300781 1403.777344 1123.878906 1403.546875 1125.453125 C 1403.3125 1127.023438 1403.039062 1128.589844 1402.730469 1130.148438 C 1402.421875 1131.707031 1402.070312 1133.257812 1401.6875 1134.796875 C 1401.300781 1136.339844 1400.875 1137.871094 1400.414062 1139.390625 C 1399.953125 1140.910156 1399.457031 1142.421875 1398.917969 1143.917969 C 1398.382812 1145.414062 1397.8125 1146.894531 1397.203125 1148.363281 C 1396.597656 1149.832031 1395.953125 1151.285156 1395.273438 1152.71875 C 1394.59375 1154.15625 1393.878906 1155.574219 1393.128906 1156.976562 C 1392.382812 1158.378906 1391.597656 1159.761719 1390.78125 1161.125 C 1389.964844 1162.488281 1389.113281 1163.828125 1388.230469 1165.152344 C 1387.347656 1166.472656 1386.433594 1167.769531 1385.488281 1169.046875 C 1384.539062 1170.324219 1383.5625 1171.578125 1382.554688 1172.804688 C 1381.546875 1174.035156 1380.507812 1175.238281 1379.441406 1176.414062 C 1378.375 1177.589844 1377.277344 1178.742188 1376.15625 1179.867188 C 1375.03125 1180.988281 1373.878906 1182.085938 1372.703125 1183.152344 C 1371.527344 1184.21875 1370.324219 1185.257812 1369.09375 1186.265625 C 1367.867188 1187.273438 1366.613281 1188.25 1365.335938 1189.199219 C 1364.0625 1190.144531 1362.761719 1191.058594 1361.441406 1191.941406 C 1360.117188 1192.824219 1358.777344 1193.675781 1357.414062 1194.492188 C 1356.050781 1195.308594 1354.667969 1196.09375 1353.265625 1196.839844 C 1351.867188 1197.589844 1350.445312 1198.304688 1349.007812 1198.984375 C 1347.574219 1199.664062 1346.121094 1200.308594 1344.652344 1200.914062 C 1343.183594 1201.523438 1341.703125 1202.09375 1340.207031 1202.628906 C 1338.710938 1203.164062 1337.199219 1203.664062 1335.679688 1204.125 C 1334.160156 1204.585938 1332.628906 1205.011719 1331.085938 1205.398438 C 1329.546875 1205.78125 1327.996094 1206.132812 1326.4375 1206.441406 C 1324.878906 1206.75 1323.3125 1207.023438 1321.742188 1207.253906 C 1320.167969 1207.488281 1318.59375 1207.683594 1317.011719 1207.839844 C 1315.429688 1207.996094 1313.84375 1208.113281 1312.257812 1208.191406 C 1310.671875 1208.269531 1309.082031 1208.308594 1307.492188 1208.308594 L 142.25 1208.308594 C 140.660156 1208.308594 139.070312 1208.269531 137.484375 1208.191406 C 135.898438 1208.113281 134.3125 1207.996094 132.730469 1207.839844 C 131.148438 1207.683594 129.574219 1207.488281 128 1207.257812 C 126.429688 1207.023438 124.863281 1206.75 123.304688 1206.441406 C 121.746094 1206.132812 120.195312 1205.78125 118.65625 1205.398438 C 117.113281 1205.011719 115.582031 1204.585938 114.0625 1204.125 C 112.542969 1203.664062 111.03125 1203.164062 109.535156 1202.628906 C 108.039062 1202.09375 106.558594 1201.523438 105.089844 1200.914062 C 103.621094 1200.308594 102.167969 1199.664062 100.734375 1198.984375 C 99.296875 1198.304688 97.875 1197.589844 96.476562 1196.839844 C 95.074219 1196.09375 93.691406 1195.308594 92.328125 1194.492188 C 90.964844 1193.675781 89.625 1192.824219 88.300781 1191.941406 C 86.980469 1191.058594 85.679688 1190.144531 84.40625 1189.199219 C 83.128906 1188.25 81.875 1187.273438 80.648438 1186.265625 C 79.417969 1185.257812 78.214844 1184.21875 77.039062 1183.152344 C 75.859375 1182.085938 74.710938 1180.988281 73.585938 1179.867188 C 72.464844 1178.742188 71.367188 1177.589844 70.300781 1176.414062 C 69.234375 1175.238281 68.195312 1174.035156 67.1875 1172.804688 C 66.179688 1171.578125 65.203125 1170.324219 64.253906 1169.046875 C 63.308594 1167.769531 62.394531 1166.472656 61.511719 1165.152344 C 60.628906 1163.828125 59.777344 1162.488281 58.960938 1161.125 C 58.144531 1159.761719 57.359375 1158.378906 56.613281 1156.976562 C 55.863281 1155.574219 55.148438 1154.15625 54.46875 1152.71875 C 53.789062 1151.285156 53.144531 1149.832031 52.539062 1148.363281 C 51.929688 1146.894531 51.359375 1145.414062 50.824219 1143.917969 C 50.285156 1142.421875 49.789062 1140.910156 49.328125 1139.390625 C 48.867188 1137.871094 48.441406 1136.339844 48.054688 1134.796875 C 47.671875 1133.257812 47.320312 1131.707031 47.011719 1130.148438 C 46.703125 1128.589844 46.429688 1127.023438 46.195312 1125.453125 C 45.964844 1123.878906 45.769531 1122.300781 45.613281 1120.722656 C 45.457031 1119.140625 45.339844 1117.554688 45.261719 1115.96875 C 45.183594 1114.378906 45.144531 1112.792969 45.144531 1111.203125 L 45.144531 334.375 C 45.144531 332.785156 45.183594 331.195312 45.261719 329.609375 C 45.339844 328.023438 45.457031 326.4375 45.613281 324.855469 C 45.769531 323.273438 45.964844 321.699219 46.195312 320.125 C 46.429688 318.554688 46.703125 316.988281 47.011719 315.429688 C 47.320312 313.871094 47.671875 312.320312 48.054688 310.78125 C 48.441406 309.238281 48.867188 307.707031 49.328125 306.1875 C 49.789062 304.667969 50.285156 303.15625 50.824219 301.660156 C 51.359375 300.164062 51.929688 298.683594 52.539062 297.214844 C 53.144531 295.746094 53.789062 294.292969 54.46875 292.859375 C 55.148438 291.421875 55.863281 290 56.613281 288.601562 C 57.359375 287.199219 58.144531 285.816406 58.960938 284.453125 C 59.777344 283.089844 60.628906 281.746094 61.511719 280.425781 C 62.394531 279.105469 63.308594 277.804688 64.253906 276.53125 C 65.203125 275.253906 66.179688 274 67.1875 272.773438 C 68.195312 271.542969 69.234375 270.339844 70.300781 269.164062 C 71.367188 267.984375 72.464844 266.835938 73.585938 265.710938 C 74.710938 264.589844 75.859375 263.492188 77.039062 262.425781 C 78.214844 261.359375 79.417969 260.320312 80.648438 259.3125 C 81.875 258.304688 83.128906 257.328125 84.40625 256.378906 C 85.679688 255.433594 86.980469 254.519531 88.300781 253.636719 C 89.625 252.753906 90.964844 251.902344 92.328125 251.085938 C 93.691406 250.269531 95.074219 249.484375 96.476562 248.738281 C 97.875 247.988281 99.296875 247.273438 100.734375 246.59375 C 102.167969 245.914062 103.621094 245.269531 105.089844 244.664062 C 106.558594 244.054688 108.039062 243.484375 109.535156 242.949219 C 111.03125 242.410156 112.542969 241.914062 114.0625 241.453125 C 115.582031 240.992188 117.113281 240.566406 118.65625 240.179688 C 120.195312 239.796875 121.746094 239.445312 123.304688 239.136719 C 124.863281 238.828125 126.429688 238.554688 128 238.320312 C 129.574219 238.089844 131.148438 237.894531 132.730469 237.738281 C 134.3125 237.582031 135.898438 237.464844 137.484375 237.386719 C 139.070312 237.308594 140.660156 237.269531 142.25 237.269531 Z M 142.25 237.269531 " fill-opacity="1" fill-rule="nonzero"/></g><g clip-path="url(#9e7c4f54aa)"><path fill="#000000" d="M 193.679688 306.167969 C 169.699219 306.167969 145.253906 314.953125 127.941406 332.265625 C 110.632812 349.578125 101.847656 374.023438 101.847656 398 L 101.847656 581.667969 L 193.679688 581.667969 L 193.679688 398 L 377.347656 398 L 377.347656 306.167969 Z M 652.847656 306.167969 L 652.847656 398 L 836.511719 398 L 836.511719 581.667969 L 928.347656 581.667969 L 928.347656 398 C 928.347656 374.023438 919.558594 349.578125 902.25 332.265625 C 884.9375 314.953125 860.492188 306.167969 836.511719 306.167969 Z M 101.847656 857.167969 L 101.847656 1040.835938 C 101.847656 1064.8125 110.632812 1089.257812 127.941406 1106.570312 C 145.253906 1123.882812 169.699219 1132.667969 193.679688 1132.667969 L 377.347656 1132.667969 L 377.347656 1040.835938 L 193.679688 1040.835938 L 193.679688 857.167969 Z M 836.511719 857.167969 L 836.511719 1040.835938 L 652.847656 1040.835938 L 652.847656 1132.667969 L 836.511719 1132.667969 C 860.492188 1132.667969 884.9375 1123.882812 902.25 1106.570312 C 919.558594 1089.257812 928.347656 1064.8125 928.347656 1040.835938 L 928.347656 857.167969 Z M 836.511719 857.167969 " fill-opacity="1" fill-rule="nonzero"/></g><g clip-path="url(#25d44f3e99)"><path fill="#000000" d="M 566.824219 267.589844 C 541.714844 267.589844 516.117188 276.789062 497.988281 294.917969 C 479.859375 313.046875 470.660156 338.644531 470.660156 363.757812 L 470.660156 556.089844 L 566.824219 556.089844 L 566.824219 363.757812 L 759.160156 363.757812 L 759.160156 267.589844 Z M 1047.660156 267.589844 L 1047.660156 363.757812 L 1239.992188 363.757812 L 1239.992188 556.089844 L 1336.160156 556.089844 L 1336.160156 363.757812 C 1336.160156 338.644531 1326.957031 313.046875 1308.832031 294.917969 C 1290.703125 276.789062 1265.101562 267.589844 1239.992188 267.589844 Z M 470.660156 844.589844 L 470.660156 1036.921875 C 470.660156 1062.035156 479.859375 1087.632812 497.988281 1105.761719 C 516.117188 1123.890625 541.714844 1133.089844 566.824219 1133.089844 L 759.160156 1133.089844 L 759.160156 1036.921875 L 566.824219 1036.921875 L 566.824219 844.589844 Z M 1239.992188 844.589844 L 1239.992188 1036.921875 L 1047.660156 1036.921875 L 1047.660156 1133.089844 L 1239.992188 1133.089844 C 1265.101562 1133.089844 1290.703125 1123.890625 1308.832031 1105.761719 C 1326.957031 1087.632812 1336.160156 1062.035156 1336.160156 1036.921875 L 1336.160156 844.589844 Z M 1239.992188 844.589844 " fill-opacity="1" fill-rule="nonzero"/></g><g clip-path="url(#5d3eccc471)"><path fill="#000000" d="M 651.714844 624.914062 L 651.714844 875.324219 L 848.214844 750.121094 Z M 651.714844 624.914062 " fill-opacity="1" fill-rule="nonzero"/></g></svg>